<svg xmlns="http://www.w3.org/2000/svg" width="299" height="313" viewBox="0 0 299 313" version="1.1">
	<path d="M 137.500 29 C 113.300 29.275, 92.964 29.848, 92.308 30.273 C 91.419 30.850, 91.095 41.985, 91.032 74.198 C 90.948 116.548, 90.901 117.529, 88.497 127.011 C 83.163 148.053, 75.904 167.043, 68.431 179.500 C 45.469 217.777, 42.492 225.376, 43.187 243.932 C 43.522 252.901, 44.013 255.445, 46.427 260.747 C 52.629 274.372, 66.499 281.822, 83.847 280.847 C 88.899 280.563, 90.123 280.800, 90.547 282.142 C 91.403 284.849, 94.493 285.250, 118.156 285.729 C 140.130 286.174, 140.876 286.124, 142.906 284.094 C 144.448 282.552, 145.037 280.615, 145.142 276.750 C 145.281 271.612, 145.297 271.585, 145.892 275.500 L 146.500 279.500 154.500 279.500 C 162.490 279.500, 162.502 279.496, 164 276.350 C 166.146 271.842, 171.465 270.257, 175.210 273.009 C 176.700 274.104, 178.430 275, 179.055 275 C 181.797 275, 193 265.576, 193 263.269 C 193 262.532, 192.314 260.883, 191.476 259.604 C 190.067 257.453, 190.154 256.888, 192.632 252.112 C 194.422 248.661, 196.392 246.433, 198.565 245.402 C 204.605 242.536, 205.314 240.994, 204.787 231.879 C 204.258 222.741, 203.080 221, 197.430 221 C 194.835 221, 194.013 220.445, 193.006 218.016 C 191.970 215.514, 192.049 214.341, 193.495 210.766 C 194.443 208.420, 195.410 206.024, 195.643 205.442 C 196.170 204.125, 193.657 201.267, 188.695 197.538 L 184.889 194.678 179.281 197.002 C 174.218 199.101, 173.424 199.187, 171.110 197.888 C 169.226 196.831, 168.348 195.283, 167.795 192.047 C 167.382 189.626, 166.471 187.282, 165.772 186.838 C 165.072 186.394, 161.720 186.024, 158.321 186.015 C 151.311 185.998, 149.802 186.977, 147.960 192.741 C 146.013 198.834, 145 198.870, 145 192.847 C 145 189.792, 144.711 184.527, 144.358 181.147 L 143.715 175 181.108 174.900 C 201.673 174.845, 219.625 174.487, 221 174.103 L 223.500 173.406 223.500 150.806 C 223.500 129.858, 223.359 128.050, 221.564 126.069 C 219.643 123.948, 219.334 123.934, 182.314 124.216 L 144.999 124.500 144.999 104.332 C 145 93.239, 144.727 83.452, 144.393 82.582 C 143.845 81.153, 148.698 80.993, 194.643 80.926 C 222.614 80.885, 247.525 80.548, 250 80.176 L 254.500 79.500 254.768 55.768 C 255.026 32.899, 254.961 31.961, 252.961 29.961 C 250.657 27.657, 253.549 27.681, 137.500 29 M 153.035 193.934 C 151.516 196.774, 151.726 197.055, 154.565 195.975 C 155.976 195.439, 158.226 195, 159.565 195 C 161.063 195, 162 194.423, 162 193.500 C 162 191.099, 154.354 191.469, 153.035 193.934 M 177.750 202.572 C 176.238 203.393, 175 204.500, 175 205.032 C 175 205.564, 174.244 206, 173.321 206 C 170.886 206, 165 203.736, 165 202.799 C 165 202.360, 161.625 202, 157.500 202 C 153.375 202, 150 202.401, 150 202.892 C 150 203.382, 148.875 204.066, 147.500 204.411 C 145.050 205.026, 145 205.230, 145 214.674 C 145 223.889, 145.079 224.239, 146.800 222.681 C 147.789 221.786, 150.528 220.372, 152.885 219.541 C 163.189 215.905, 174 223.975, 174 235.302 C 174 247.620, 158.993 255.436, 148.732 248.464 L 145 245.928 145 255.237 L 145 264.545 148.462 266.410 C 151.279 267.927, 153.189 268.161, 158.712 267.666 C 171.094 266.556, 175.483 265.760, 177.131 264.325 C 178.545 263.095, 178.969 263.112, 180.310 264.453 C 182.183 266.326, 182.793 266.371, 184.321 264.750 C 186.146 262.814, 186.269 260.060, 184.642 257.577 C 183.270 255.483, 183.452 254.728, 187.080 247.465 C 189.580 242.460, 191 238.237, 191 235.808 C 191 232.458, 191.288 232, 193.393 232 C 195.854 232, 196.925 233.541, 197.100 237.332 C 197.193 239.351, 197.246 239.333, 197.876 237.077 C 198.249 235.745, 198.317 232.595, 198.027 230.077 C 197.582 226.210, 197.133 225.448, 195.135 225.165 C 193.834 224.981, 192.297 225.303, 191.721 225.879 C 190.178 227.422, 187.287 223.656, 186.517 219.103 C 185.176 211.162, 185.163 208.125, 186.475 208.629 C 187.169 208.895, 187.979 208.188, 188.275 207.058 C 188.660 205.583, 188.018 204.437, 186.002 203.001 C 182.686 200.640, 181.431 200.575, 177.750 202.572 M 57.649 207.005 C 55.409 209.667, 53.007 218.341, 54.184 219.518 C 54.722 220.055, 62 206.657, 62 205.130 C 62 203.154, 60.258 203.905, 57.649 207.005 M 151.299 223.960 C 145.418 227.545, 143.291 235.298, 146.636 240.960 C 151.349 248.940, 164.372 248.983, 168.483 241.033 C 171.832 234.557, 168.975 226.141, 162.510 223.440 C 157.876 221.504, 155.116 221.632, 151.299 223.960" stroke="none" fill="black" fill-rule="evenodd"/>
</svg>